<?xml version="1.0" encoding="UTF-8"?>
<svg version="1.1" xmlns="http://www.w3.org/2000/svg" width="461" height="443">
<path d="M0 0 C152.13 0 304.26 0 461 0 C461 146.19 461 292.38 461 443 C308.87 443 156.74 443 0 443 C0 296.81 0 150.62 0 0 Z " fill="#FEFEFE" transform="translate(0,0)"/>
<path d="M0 0 C3.84961133 0.76992227 5.82445528 1.23375987 9.06640625 2.99609375 C9.79923828 3.38990234 10.53207031 3.78371094 11.28710938 4.18945312 C12.41342773 4.80723633 12.41342773 4.80723633 13.5625 5.4375 C15.06365512 6.24896985 16.56495256 7.06017647 18.06640625 7.87109375 C18.72584229 8.23130615 19.38527832 8.59151855 20.06469727 8.96264648 C22.02349137 10.01259176 24.01218523 11.00609262 26 12 C26 45.33 26 78.66 26 113 C19.25037481 110.75012494 19.25037481 110.75012494 16.0546875 109.125 C15.37019531 108.77953125 14.68570312 108.4340625 13.98046875 108.078125 C13.28566406 107.72234375 12.59085937 107.3665625 11.875 107 C11.17246094 106.64421875 10.46992188 106.2884375 9.74609375 105.921875 C8.43899491 105.25967748 7.1327315 104.59582604 5.82763672 103.9296875 C3.88974782 102.94391661 1.94466606 101.97233303 0 101 C0 67.67 0 34.34 0 0 Z " fill="#686F73" transform="translate(267,121)"/>
<path d="M0 0 C4.33885945 0.86777189 6.97189912 1.8242466 10.8125 3.8125 C11.78832031 4.31394531 12.76414063 4.81539062 13.76953125 5.33203125 C14.83558594 5.88246094 15.90164062 6.43289062 17 7 C19.64 8.32 22.28 9.64 25 11 C25 44.99 25 78.98 25 114 C21.05639917 113.01409979 17.77507587 111.51773924 14.1875 109.6875 C13.59646484 109.39166016 13.00542969 109.09582031 12.39648438 108.79101562 C8.16923636 106.65664722 4.12858729 104.35919274 0 102 C0 68.34 0 34.68 0 0 Z " fill="#1F3053" transform="translate(161,155)"/>
<path d="M0 0 C2.48238046 1.01091106 4.71549751 2.05278233 7.0625 3.3125 C8.08537109 3.84230469 8.08537109 3.84230469 9.12890625 4.3828125 C11.42583903 5.57639721 13.71287244 6.78774322 16 8 C17.71696773 8.90065558 19.43443108 9.80036685 21.15234375 10.69921875 C23.83236432 12.10204394 26.51165706 13.50613819 29.18823242 14.91552734 C35.3386537 18.15057339 41.52364043 21.30456884 47.76367188 24.36328125 C50.8329245 25.87615168 53.83479662 27.45852913 56.79296875 29.17578125 C59.34538894 30.62764511 61.14838139 31.54374102 64 32 C62.18497238 37.44508285 56.3777791 40.05679932 51.8125 43.25 C50.77029297 44.00796875 49.72808594 44.7659375 48.65429688 45.546875 C47.64044922 46.2584375 46.62660156 46.97 45.58203125 47.703125 C44.65624268 48.35958008 43.7304541 49.01603516 42.77661133 49.69238281 C39.32327199 51.31869825 37.62977915 51.0106164 34 50 C31.6155251 48.96265395 29.35892101 47.89038719 27.0625 46.6875 C26.3821167 46.33921143 25.7017334 45.99092285 25.00073242 45.63208008 C22.66216547 44.43080225 20.33088424 43.21611352 18 42 C16.19275226 41.06241532 14.38545867 40.12491902 12.578125 39.1875 C8.69676569 37.17098532 4.82147311 35.14331234 0.94921875 33.109375 C-3.05519633 31.00839497 -7.0736784 28.93855961 -11.10546875 26.890625 C-12.07524658 26.39409424 -13.04502441 25.89756348 -14.04418945 25.38598633 C-15.89686649 24.43799729 -17.75335937 23.49741996 -19.61401367 22.56518555 C-20.44006104 22.14019775 -21.2661084 21.71520996 -22.1171875 21.27734375 C-23.20942627 20.72421509 -23.20942627 20.72421509 -24.32373047 20.15991211 C-26 19 -26 19 -27 16 C-26.54149658 15.65743164 -26.08299316 15.31486328 -25.6105957 14.96191406 C-23.510584 13.39213876 -21.41153584 11.82107991 -19.3125 10.25 C-18.2306543 9.44175781 -18.2306543 9.44175781 -17.12695312 8.6171875 C-16.42119141 8.08867187 -15.71542969 7.56015625 -14.98828125 7.015625 C-14.29557129 6.50064453 -13.60286133 5.98566406 -12.88916016 5.45507812 C-11.31918116 4.24584127 -9.82552713 2.93829041 -8.35546875 1.609375 C-5.25621309 -0.50819272 -3.69819766 -0.54018618 0 0 Z " fill="#6A7175" transform="translate(189,125)"/>
<path d="M0 0 C3.26035798 1.09596493 6.259571 2.64898783 9.3125 4.21484375 C10.7537718 4.94557774 12.19518462 5.67603364 13.63671875 6.40625 C14.77826416 6.98656982 14.77826416 6.98656982 15.94287109 7.57861328 C18.3379742 8.79023045 20.73983857 9.9872261 23.14453125 11.1796875 C32.48558676 15.81475222 41.76829314 20.53717509 50.95825195 25.46630859 C55.33590807 27.79996607 59.72304575 29.89184801 64.3125 31.77734375 C64.3125 32.43734375 64.3125 33.09734375 64.3125 33.77734375 C62.36328125 35.37109375 62.36328125 35.37109375 59.625 37.27734375 C56.27761152 39.62138065 53.03038354 41.97253224 49.8984375 44.59765625 C49.0489856 45.29665039 49.0489856 45.29665039 48.18237305 46.00976562 C47.07678218 46.92491441 45.98387248 47.85564454 44.90551758 48.80273438 C43.35546875 50.06640625 43.35546875 50.06640625 40.3125 51.77734375 C37.375 51.26953125 37.375 51.26953125 34.3125 49.77734375 C33.18457031 49.25140625 32.05664062 48.72546875 30.89453125 48.18359375 C29.6356805 47.55282632 28.37928979 46.91713269 27.125 46.27734375 C26.43792969 45.93058594 25.75085938 45.58382812 25.04296875 45.2265625 C18.79091558 42.05571833 12.59400182 38.78077829 6.3996582 35.49902344 C0.5901342 32.42787818 -5.26729352 29.46800152 -11.15625 26.55273438 C-16.74797777 23.77405818 -22.23775675 20.82550523 -27.6875 17.77734375 C-24.98752569 14.92943094 -22.28989594 12.69940189 -18.9921875 10.578125 C-18.11175781 10.00900391 -17.23132813 9.43988281 -16.32421875 8.85351562 C-15.41285156 8.27150391 -14.50148437 7.68949219 -13.5625 7.08984375 C-12.64339844 6.49623047 -11.72429687 5.90261719 -10.77734375 5.29101562 C-2.12486939 -0.28036471 -2.12486939 -0.28036471 0 0 Z " fill="#6B7175" transform="translate(228.6875,213.22265625)"/>
<path d="M0 0 C6.4659375 -0.0928125 6.4659375 -0.0928125 13.0625 -0.1875 C14.40836182 -0.21481201 15.75422363 -0.24212402 17.14086914 -0.27026367 C25.50639722 -0.32836196 30.32925016 0.45871165 37.25 5.25 C41.63487831 9.63487831 43.1470199 13.82804758 43.4375 19.9375 C43.21989988 25.9124366 41.4647666 30.30949983 37.421875 34.72265625 C29.52686384 41.95974982 22.42490527 42.41547426 12.0625 42.1875 C8.081875 42.125625 4.10125 42.06375 0 42 C0 28.14 0 14.28 0 0 Z " fill="#253658" transform="translate(305,326)"/>
<path d="M0 0 C4.7734375 0.828125 4.7734375 0.828125 6.8125 2.375 C9.08143859 4.22326323 9.08143859 4.22326323 12.57421875 5.29296875 C17.33691293 7.03151639 21.6122704 9.4179249 26 11.9375 C31.59691033 15.12277235 37.21730506 18.16583006 43 21 C44.42767333 21.71236044 45.85474859 22.42592066 47.28125 23.140625 C47.97734375 23.48867188 48.6734375 23.83671875 49.390625 24.1953125 C52.59375 25.796875 55.796875 27.3984375 59 29 C59 29.99 59 30.98 59 32 C55.90333783 35.03065285 52.33388742 37.52168394 48.875 40.125 C47.92367187 40.86621094 46.97234375 41.60742188 45.9921875 42.37109375 C45.0640625 43.07621094 44.1359375 43.78132813 43.1796875 44.5078125 C42.33132324 45.15379395 41.48295898 45.79977539 40.60888672 46.46533203 C37.64024614 48.21162388 35.42558741 48.76704381 32 49 C29.5026564 47.96386808 27.4226145 46.93018623 25.125 45.5625 C23.81378101 44.82064792 22.50123042 44.08114551 21.1875 43.34375 C20.16849609 42.76560547 20.16849609 42.76560547 19.12890625 42.17578125 C14.83718071 39.80548879 10.41645622 37.68700601 6.01611328 35.52758789 C1.09829841 33.09829841 1.09829841 33.09829841 0 32 C-0.0883967 29.6243148 -0.11530305 27.27791326 -0.09765625 24.90234375 C-0.0962413 24.19348526 -0.09482635 23.48462677 -0.09336853 22.75428772 C-0.08775443 20.48198288 -0.07519963 18.20977525 -0.0625 15.9375 C-0.05748681 14.40039204 -0.05292359 12.86328255 -0.04882812 11.32617188 C-0.03778042 7.55074358 -0.02050641 3.77538829 0 0 Z " fill="#6B7176" transform="translate(198,243)"/>
<path d="M0 0 C2.66351108 1.1127168 5.12411491 2.36046292 7.625 3.8046875 C11.09316784 5.76049143 14.52273589 7.56074792 18.1875 9.1171875 C21.88996911 10.7011315 25.04347379 12.72069236 28.375 14.9921875 C30.85 15.9821875 30.85 15.9821875 33.375 16.9921875 C33.375 27.8821875 33.375 38.7721875 33.375 49.9921875 C29.29858724 48.3616224 25.57625559 46.53382 21.75 44.4296875 C15.96197716 41.29054307 10.0939592 38.39549127 4.125 35.6171875 C-5.06298581 31.33549002 -14.02355856 26.67103062 -22.95532227 21.88085938 C-24.16974889 21.23449106 -25.39451261 20.60743119 -26.625 19.9921875 C-26.625 19.0021875 -26.625 18.0121875 -26.625 16.9921875 C-25.18359375 15.7734375 -25.18359375 15.7734375 -23.0625 14.4921875 C-19.87445499 12.50029293 -16.83405625 10.42025421 -13.86328125 8.12109375 C-12.87726929 7.36505859 -12.87726929 7.36505859 -11.87133789 6.59375 C-10.55324401 5.5775749 -9.24356936 4.55037287 -7.94311523 3.51171875 C-3.32402327 -0.00989293 -3.32402327 -0.00989293 0 0 Z " fill="#233559" transform="translate(222.625,97.0078125)"/>
<path d="M0 0 C3.3125 0.625 3.3125 0.625 4.7265625 2.10546875 C6.37258857 4.55611651 7.85070145 7.05932611 9.3125 9.625 C10.4492741 11.61242139 11.59106318 13.59638554 12.74487305 15.57397461 C13.53202199 16.92767743 14.3059762 18.28915025 15.06567383 19.65844727 C17.01218645 23.32293796 17.01218645 23.32293796 20.44677734 25.31640625 C21.06246582 25.41824219 21.6781543 25.52007812 22.3125 25.625 C23.27673026 24.23323368 24.23361602 22.8363777 25.1875 21.4375 C25.72117188 20.66019531 26.25484375 19.88289063 26.8046875 19.08203125 C28.36468511 16.69979889 28.36468511 16.69979889 29.2734375 14.1875 C30.52830211 11.09279629 32.16521534 8.55915047 34.0625 5.8125 C34.71734375 4.83667969 35.3721875 3.86085938 36.046875 2.85546875 C38.3125 0.625 38.3125 0.625 44.3125 0.625 C44.3125 14.485 44.3125 28.345 44.3125 42.625 C42.0025 42.625 39.6925 42.625 37.3125 42.625 C37.32297363 41.94920898 37.33344727 41.27341797 37.34423828 40.57714844 C37.38585976 37.50980358 37.41184573 34.44251822 37.4375 31.375 C37.45425781 30.31152344 37.47101563 29.24804688 37.48828125 28.15234375 C37.49472656 27.12753906 37.50117188 26.10273438 37.5078125 25.046875 C37.51828613 24.10424805 37.52875977 23.16162109 37.53955078 22.19042969 C37.30369213 19.52548059 36.66911659 17.90636908 35.3125 15.625 C34.6525 15.625 33.9925 15.625 33.3125 15.625 C32.97605469 16.85089844 32.97605469 16.85089844 32.6328125 18.1015625 C30.99835795 22.46333175 28.70496152 26.10040275 26.1875 30 C25.71957031 30.73605469 25.25164062 31.47210938 24.76953125 32.23046875 C23.62291087 34.03230078 22.46848924 35.82916431 21.3125 37.625 C19.14453125 37.65234375 19.14453125 37.65234375 16.3125 36.625 C14.17553343 34.02276983 12.61535519 31.13342924 11 28.1875 C10.54560547 27.39794922 10.09121094 26.60839844 9.62304688 25.79492188 C6.3125 19.95541588 6.3125 19.95541588 6.3125 17.625 C5.3225 17.625 4.3325 17.625 3.3125 17.625 C3.3125 25.875 3.3125 34.125 3.3125 42.625 C1.0025 42.625 -1.3075 42.625 -3.6875 42.625 C-3.71214638 36.80428378 -3.7303343 30.98359766 -3.74243164 25.1628418 C-3.74747267 23.18106559 -3.75430538 21.19929311 -3.76293945 19.2175293 C-3.77501515 16.37547891 -3.78073045 13.53347753 -3.78515625 10.69140625 C-3.79031754 9.79974258 -3.79547882 8.90807892 -3.80079651 7.98939514 C-3.80099177 5.86759399 -3.7496003 3.7458922 -3.6875 1.625 C-2.6875 0.625 -2.6875 0.625 0 0 Z " fill="#263758" transform="translate(209.6875,325.375)"/>
<path d="M0 0 C2.97 0 5.94 0 9 0 C13.19532209 8.19969614 17.0748717 16.49284923 20.75 24.9375 C21.23082031 26.03384766 21.71164063 27.13019531 22.20703125 28.25976562 C24.20111187 32.81726743 26.17275162 37.37261411 28 42 C25.03 42 22.06 42 19 42 C17 38 17 38 17 34 C14.0804957 33.0268319 11.94555049 32.8070454 8.89453125 32.68359375 C7.42016602 32.62075195 7.42016602 32.62075195 5.91601562 32.55664062 C4.89185547 32.51732422 3.86769531 32.47800781 2.8125 32.4375 C1.25885742 32.37272461 1.25885742 32.37272461 -0.32617188 32.30664062 C-2.8839819 32.20055634 -5.44188845 32.09849854 -8 32 C-8.46019531 33.41152344 -8.46019531 33.41152344 -8.9296875 34.8515625 C-9.79387001 37.39364681 -10.73203535 39.64520851 -12 42 C-14.31 42 -16.62 42 -19 42 C-18.33527767 38.54824911 -16.94851741 35.96466663 -15.1875 32.9375 C-12.58115957 28.27711509 -10.72314886 23.67302291 -9 18.6328125 C-7.71085508 15.23873563 -5.99855281 12.21106269 -4.171875 9.08203125 C-2.51933152 6.14601233 -1.26180611 3.12130985 0 0 Z " fill="#253658" transform="translate(133,326)"/>
<path d="M0 0 C2.23818639 -0.03219735 4.47650695 -0.05515627 6.71484375 -0.07421875 C8.58450806 -0.09488403 8.58450806 -0.09488403 10.49194336 -0.1159668 C16.36501931 0.0781811 20.05593643 1.67638225 24.9375 5 C28.56805357 10.2808052 28.3280041 16.10263045 27.625 22.3125 C24.97438253 26.69621351 21.75156781 29.10588187 17 31 C5.30687525 32.55992879 5.30687525 32.55992879 1.32836914 29.86962891 C-0.63091003 27.11201819 -0.33846844 24.93384176 -0.29296875 21.58203125 C-0.28330078 20.32841797 -0.27363281 19.07480469 -0.26367188 17.78320312 C-0.23853516 16.47287109 -0.21339844 15.16253906 -0.1875 13.8125 C-0.17244967 12.47722837 -0.15876187 11.14194063 -0.14648438 9.80664062 C-0.11107694 6.53735424 -0.0616889 3.26887907 0 0 Z " fill="#F7F8F9" transform="translate(312,332)"/>
<path d="M0 0 C4.02443253 2.24439506 6.20282311 4.71814622 8.25 8.8125 C8.25 11.4525 8.25 14.0925 8.25 16.8125 C0 16.8125 -8.25 16.8125 -16.75 16.8125 C-13.61824314 22.58510299 -13.61824314 22.58510299 -10.75 23.8125 C-8.03239892 23.88431821 -5.34140612 23.90549506 -2.625 23.875 C-1.49384766 23.86823242 -1.49384766 23.86823242 -0.33984375 23.86132812 C1.52347127 23.84953499 3.38674555 23.83159942 5.25 23.8125 C5.25 24.8025 5.25 25.7925 5.25 26.8125 C-0.86071907 30.43366686 -5.63730897 31.91891861 -12.75 30.8125 C-17.21781768 29.44605404 -20.06958488 27.54394625 -23.25 24.125 C-25.21474327 19.78619196 -25.64167658 16.49380203 -24.75 11.8125 C-23.00115439 7.27553578 -21.01558758 3.7767572 -17.125 0.8125 C-11.11281007 -1.71894839 -6.16153494 -1.95115273 0 0 Z " fill="#293B5C" transform="translate(287.75,338.1875)"/>
<path d="M0 0 C6.75 1.125 6.75 1.125 9.6484375 2.84765625 C10.26074219 3.20537109 10.87304688 3.56308594 11.50390625 3.93164062 C12.12136719 4.30482422 12.73882812 4.67800781 13.375 5.0625 C14.01566406 5.43955078 14.65632812 5.81660156 15.31640625 6.20507812 C16.88254066 7.12839617 18.44198034 8.06305393 20 9 C22.05665958 27.70951736 22.05665958 27.70951736 18.83691406 32.86083984 C15.44057618 36.20693604 11.32156153 38.05697234 7 40 C4.69 41.32 2.38 42.64 0 44 C0 29.48 0 14.96 0 0 Z " fill="#6A7176" transform="translate(198,174)"/>
<path d="M0 0 C0 14.19 0 28.38 0 43 C-4.73209332 41.42263556 -8.1156635 39.94096785 -12.3125 37.4375 C-13.36050781 36.81746094 -14.40851563 36.19742188 -15.48828125 35.55859375 C-18 34 -18 34 -19 33 C-19.30593196 29.92633322 -19.27840183 26.8370208 -19.3125 23.75 C-19.34150391 22.89019531 -19.37050781 22.03039062 -19.40039062 21.14453125 C-19.44009362 17.18034022 -19.38966193 14.68167136 -17.39453125 11.19140625 C-14.53791915 8.57711688 -11.58722413 6.34212801 -8.375 4.1875 C-7.78976563 3.78080078 -7.20453125 3.37410156 -6.6015625 2.95507812 C-2.27075893 0 -2.27075893 0 0 0 Z " fill="#697074" transform="translate(255,172)"/>
<path d="M0 0 C4.02443253 2.24439506 6.20282311 4.71814622 8.25 8.8125 C8.25 11.4525 8.25 14.0925 8.25 16.8125 C-0.33 17.1425 -8.91 17.4725 -17.75 17.8125 C-17.75 17.1525 -17.75 16.4925 -17.75 15.8125 C-9.5 15.8125 -1.25 15.8125 7.25 15.8125 C6.14214353 14.47404958 6.14214353 14.47404958 3.3359375 14.75 C2.11132812 14.770625 0.88671875 14.79125 -0.375 14.8125 C-13.42767388 14.87889203 -13.42767388 14.87889203 -16.6875 12.25 C-17.2134375 11.5384375 -17.2134375 11.5384375 -17.75 10.8125 C-16.39978174 6.39360387 -14.48884332 4.46904657 -10.75 1.8125 C-12.07 1.1525 -13.39 0.4925 -14.75 -0.1875 C-9.50483528 -1.93588824 -5.17489039 -1.63871529 0 0 Z " fill="#3E4E6D" transform="translate(287.75,338.1875)"/>
<path d="M0 0 C1.98 0 3.96 0 6 0 C6 14.19 6 28.38 6 43 C3.36 43 0.72 43 -2 43 C-1.8820767 37.03672101 -1.757853 31.07362002 -1.62768555 25.1105957 C-1.58426759 23.08035896 -1.54259774 21.05008408 -1.50268555 19.01977539 C-1.44514854 16.10811849 -1.38140722 13.19665486 -1.31640625 10.28515625 C-1.29969376 9.3716188 -1.28298126 8.45808136 -1.26576233 7.51686096 C-1.11387171 1.11387171 -1.11387171 1.11387171 0 0 Z " fill="#273858" transform="translate(170,325)"/>
<path d="M0 0 C3.12837307 1.05642228 3.99086451 1.9849521 5.73828125 4.86328125 C6.25777344 6.00152344 6.77726563 7.13976562 7.3125 8.3125 C7.84488281 9.44300781 8.37726563 10.57351563 8.92578125 11.73828125 C10.03636758 15.11042519 10.06762741 16.67224906 9 20 C6.87436897 19.88623383 4.7494739 19.75864369 2.625 19.625 C1.44164062 19.55539062 0.25828125 19.48578125 -0.9609375 19.4140625 C-4 19 -4 19 -6 17 C-5.84304462 10.87874004 -2.60822854 5.40894628 0 0 Z " fill="#F2F3F5" transform="translate(135,334)"/>
<path d="M0 0 C2.875 1.125 2.875 1.125 5 3 C5.8125 6.1875 5.8125 6.1875 6 9 C2.77692845 9.94482476 -0.20808753 10.19523408 -3.5625 10.25 C-4.51253906 10.27578125 -5.46257812 10.3015625 -6.44140625 10.328125 C-9.37477202 9.95193763 -10.21165852 9.28811367 -12 7 C-9.74474194 0.40770721 -6.82050771 -0.5879748 0 0 Z " fill="#F6F7F8" transform="translate(282,342)"/>
<path d="M0 0 C7.36561706 1.59969249 14.58767517 4.99123142 21 8.88671875 C25.83153683 11.57614843 30.96248784 13.72743812 36 16 C36 16.99 36 17.98 36 19 C32.50956762 18.41774951 29.67680952 17.52233426 26.5234375 15.92578125 C25.69231445 15.50796387 24.86119141 15.09014648 24.00488281 14.65966797 C23.13702148 14.21510254 22.26916016 13.77053711 21.375 13.3125 C20.48651367 12.86277832 19.59802734 12.41305664 18.68261719 11.94970703 C12.38968105 8.75039576 6.14893732 5.46935454 0 2 C0 1.34 0 0.68 0 0 Z " fill="#26B9C3" transform="translate(236,91)"/>
<path d="M0 0 C3.73590122 0.58290657 6.47727304 1.62391448 9.75 3.5 C14.85612689 6.37175861 20.00585282 9.14281952 25.1875 11.875 C25.95481445 12.28041016 26.72212891 12.68582031 27.51269531 13.10351562 C29.34144415 14.06967835 31.17067034 15.03493746 33 16 C33 16.99 33 17.98 33 19 C27.07882783 17.33220317 21.8944168 14.44779825 16.5 11.5625 C14.65649132 10.58418054 12.81274749 9.60630406 10.96875 8.62890625 C10.11023438 8.17273926 9.25171875 7.71657227 8.3671875 7.24658203 C5.59785162 5.78822508 2.80861797 4.38090383 0 3 C0 2.01 0 1.02 0 0 Z " fill="#757B7F" transform="translate(183,280)"/>
<path d="M0 0 C0.35880399 5.3820598 0.35880399 5.3820598 -1.125 7.9375 C-3.92670027 9.52513015 -5.96985644 8.74070176 -9 8 C-9.1875 5.125 -9.1875 5.125 -9 2 C-5.5647952 -0.29013653 -4.014669 -0.17842973 0 0 Z " fill="#324265" transform="translate(195,360)"/>
<path d="M0 0 C4.14298667 0.59834725 7.18194377 2.00664285 10.8125 4.0625 C11.78832031 4.61035156 12.76414063 5.15820312 13.76953125 5.72265625 C14.50558594 6.14417969 15.24164063 6.56570313 16 7 C15.01 7.66 14.02 8.32 13 9 C8.45678676 7.70193907 4.20431028 5.14910153 0 3 C0 2.01 0 1.02 0 0 Z " fill="#83888D" transform="translate(183,280)"/>
<path d="M0 0 C3.465 1.485 3.465 1.485 7 3 C7 3.99 7 4.98 7 6 C1.25 4.25 1.25 4.25 -1 2 C-0.67 1.34 -0.34 0.68 0 0 Z " fill="#82878B" transform="translate(209,293)"/>
<path d="M0 0 C1.98 0.66 3.96 1.32 6 2 C6 2.99 6 3.98 6 5 C1.25 4.25 1.25 4.25 -1 2 C-0.67 1.34 -0.34 0.68 0 0 Z " fill="#34BAC6" transform="translate(266,105)"/>
</svg>
